# xmcd
#
# Track frame offsets:
# 150
# 10950
# 22725
# 34155
# 45105
# 71655
# 87600
# 105300
# 119865
# 138975
#
# Disc length: 2175 seconds
#
# Revision: 0
# Processed by: cddbd v1.5.1PL0 Copyright (c) Steve Scherf et al.
# Submitted via: Audion 3.0.2 (http://www.panic.com/audion/)
#
DISCID=7c087d0a
DTITLE=The Dead Boys - Destiny Street
DYEAR=1900
DGENRE=
TTITLE0=The Kid With the Replaceable Head
TTITLE1=You Gotta Move
TTITLE2=Going Going Gone
TTITLE3=Lowest Common Denominator
TTITLE4=Downtown at Dawn
TTITLE5=Time
TTITLE6=I Can Only Give You Everything
TTITLE7=Ignore That Door
TTITLE8=Staring in Her Eyes
TTITLE9=Destiny Street
EXTD=
EXTT0=
EXTT1=
EXTT2=
EXTT3=
EXTT4=
EXTT5=
EXTT6=
EXTT7=
EXTT8=
EXTT9=
PLAYORDER=
